<svg xmlns="http://www.w3.org/2000/svg" width="174.063" height="189.473" viewBox="0 0 174.063 189.473"><defs><style>.a{fill:#efefef;}.b{fill:#a4afc1;}.c{fill:#f3f3f1;}.d{fill:#00aeef;}.e{fill:#d5dbe1;}.f{fill:aqua;}.g{fill:#0072bc;}.h{fill:none;stroke:#f3f3f1;stroke-miterlimit:10;stroke-width:5.91px;}</style></defs><g transform="translate(-741.001 -332)"><g transform="translate(741.001 332)"><g transform="translate(1.577)"><path class="a" d="M4064.7,2312.761c-37.625,0-63.462,19.49-81.592,19.49s-56.206-10.422-56.206-93.825,51.224-95.647,71.165-95.647C4091.446,2142.778,4131.334,2312.761,4064.7,2312.761Z" transform="translate(-3926.902 -2142.778)"/></g><g transform="translate(81.592 7.708)"><path class="b" d="M4144.27,2179.249a8.159,8.159,0,1,1,8.16-8.159A8.169,8.169,0,0,1,4144.27,2179.249Zm0-10.879a2.72,2.72,0,1,0,2.72,2.72A2.721,2.721,0,0,0,4144.27,2168.37Z" transform="translate(-4136.111 -2162.931)"/></g><g transform="translate(25.837 58.023)"><path class="c" d="M4101.843,2386.957h-100.63a10.876,10.876,0,0,1-10.879-10.879v-81.592h122.388v81.592A10.876,10.876,0,0,1,4101.843,2386.957Z" transform="translate(-3990.333 -2294.486)"/></g><g transform="translate(25.837 38.984)"><path class="d" d="M4112.721,2263.746H3990.333v-8.159a10.876,10.876,0,0,1,10.879-10.879h100.63a10.876,10.876,0,0,1,10.878,10.879Z" transform="translate(-3990.333 -2244.708)"/></g><g transform="translate(25.837 58.023)"><path class="e" d="M4003.932,2376.078v-81.592h-13.6v81.592a10.876,10.876,0,0,0,10.879,10.879h13.6A10.876,10.876,0,0,1,4003.932,2376.078Z" transform="translate(-3990.333 -2294.486)"/></g><g transform="translate(25.837 38.984)"><path class="f" d="M4013.451,2244.708h-12.239a10.876,10.876,0,0,0-10.879,10.879v8.159h12.239v-8.159A10.876,10.876,0,0,1,4013.451,2244.708Z" transform="translate(-3990.333 -2244.708)"/></g><g transform="translate(21.758 34.905)"><path class="g" d="M4095.256,2353.71h-100.63a14.971,14.971,0,0,1-14.958-14.958V2249a14.971,14.971,0,0,1,14.958-14.958h100.63A14.971,14.971,0,0,1,4110.214,2249v89.751A14.971,14.971,0,0,1,4095.256,2353.71ZM3994.625,2242.2a6.809,6.809,0,0,0-6.8,6.8v89.751a6.809,6.809,0,0,0,6.8,6.8h100.63a6.809,6.809,0,0,0,6.8-6.8V2249a6.809,6.809,0,0,0-6.8-6.8Z" transform="translate(-3979.667 -2234.042)"/></g><g transform="translate(25.837 53.943)"><path class="g" d="M3990.333,2283.82h122.388v8.159H3990.333Z" transform="translate(-3990.333 -2283.82)"/></g><g transform="translate(0 146.414)"><path class="g" d="M3922.778,2525.6h174.063v8.159H3922.778Z" transform="translate(-3922.778 -2525.597)"/></g><g transform="translate(56.371 104.258)"><path class="d" d="M4105.525,2445.292h-29.917a5.441,5.441,0,0,1-5.439-5.439v-19.038a5.442,5.442,0,0,1,5.439-5.439h29.917a5.442,5.442,0,0,1,5.439,5.439v19.038A5.441,5.441,0,0,1,4105.525,2445.292Z" transform="translate(-4070.168 -2415.375)"/></g><g transform="translate(56.371 104.258)"><path class="f" d="M4082.407,2439.853v-19.038a5.442,5.442,0,0,1,5.439-5.439h-12.239a5.442,5.442,0,0,0-5.439,5.439v19.038a5.441,5.441,0,0,0,5.439,5.439h12.239A5.441,5.441,0,0,1,4082.407,2439.853Z" transform="translate(-4070.168 -2415.375)"/></g><g transform="translate(52.292 100.179)"><path class="g" d="M4098.938,2442.784h-29.917a9.529,9.529,0,0,1-9.519-9.519v-19.038a9.53,9.53,0,0,1,9.519-9.519h29.917a9.53,9.53,0,0,1,9.519,9.519v19.038A9.529,9.529,0,0,1,4098.938,2442.784Zm-29.917-29.917a1.36,1.36,0,0,0-1.36,1.36v19.038a1.361,1.361,0,0,0,1.36,1.36h29.917a1.361,1.361,0,0,0,1.36-1.36v-19.038a1.361,1.361,0,0,0-1.36-1.36Z" transform="translate(-4059.502 -2404.708)"/></g><g transform="translate(60.451 72.981)"><path class="g" d="M4088.994,2364.874h-8.159v-14.958a16.318,16.318,0,1,1,32.637,0v1.36h-8.159v-1.36a8.159,8.159,0,0,0-16.318,0Z" transform="translate(-4080.835 -2333.597)"/></g><g transform="translate(94.834 88.62)"><path class="h" d="M4188.243,2410.852h-8.082v-5.274c0-5.064,2.629-9.9,7.219-13.27a5.389,5.389,0,1,0-8.566-4.353V2392h-8.082v-4.041a13.469,13.469,0,1,1,21.426,10.872c-1.46,1.067-3.917,3.373-3.917,6.75Z" transform="translate(-4170.733 -2374.486)"/><g transform="translate(9.428 40.407)"><circle class="h" cx="4.041" cy="4.041" r="4.041"/></g></g><g transform="translate(94.834 88.62)"><path class="g" d="M4188.243,2410.852h-8.082v-5.274c0-5.064,2.629-9.9,7.219-13.27a5.389,5.389,0,1,0-8.566-4.353V2392h-8.082v-4.041a13.469,13.469,0,1,1,21.426,10.872c-1.46,1.067-3.917,3.373-3.917,6.75Z" transform="translate(-4170.733 -2374.486)"/><g transform="translate(9.428 40.407)"><circle class="g" cx="4.041" cy="4.041" r="4.041"/></g></g></g></g></svg>