<svg xmlns="http://www.w3.org/2000/svg" width="210.048" height="189.473" viewBox="0 0 210.048 189.473"><defs><style>.a{fill:#efefef;}.b{fill:#a4afc1;}.c{fill:#f3f3f1;}.d{fill:#00aeef;}.e{fill:aqua;}.f{fill:#d5dbe1;}.g{fill:#0072bc;}</style></defs><g transform="translate(-713.001 -378)"><g transform="translate(713.001 378)"><path class="a" d="M4061.135,1419.817c0,41.712-21.607,70.356-21.607,90.455s11.554,62.311,104.017,62.311,106.031-56.788,106.031-78.9c.007-103.522-188.441-147.743-188.441-73.871Z" transform="translate(-4039.528 -1383.111)"/><path class="b" d="M4097.156,1453.966a9.046,9.046,0,1,1,9.046-9.046A9.057,9.057,0,0,1,4097.156,1453.966Zm0-12.061a3.015,3.015,0,1,0,3.016,3.015A3.016,3.016,0,0,0,4097.156,1441.905Z" transform="translate(-4067.511 -1413.503)"/><path class="c" d="M4184.111,1484.885v-12.061a12.1,12.1,0,0,1,12.061-12.06h87.439a12.1,12.1,0,0,1,12.061,12.06v12.061Z" transform="translate(-4122.807 -1427.839)"/><path class="d" d="M4295.672,1517.653v39.2a12.1,12.1,0,0,1-12.061,12.061h-87.439a12.1,12.1,0,0,1-12.061-12.061v-39.2Z" transform="translate(-4122.807 -1460.606)"/><path class="c" d="M4226.723,1649.921h-87.439a12.057,12.057,0,0,1-12.061-12.06V1586.6a12.057,12.057,0,0,1,12.061-12.06h87.439a12.058,12.058,0,0,1,12.061,12.06v51.258A12.057,12.057,0,0,1,4226.723,1649.921Z" transform="translate(-4090.039 -1493.374)"/><path class="e" d="M4184.964,1638.314h-9.045a6.032,6.032,0,0,1-6.03-6.03v-9.045a6.032,6.032,0,0,1,6.03-6.031h9.045a6.033,6.033,0,0,1,6.031,6.031v9.045A6.032,6.032,0,0,1,4184.964,1638.314Z" transform="translate(-4114.615 -1517.949)"/><path class="e" d="M4184.111,1517.653h13.568v24.121h-13.568Z" transform="translate(-4122.807 -1460.606)"/><path class="d" d="M4183.457,1632.284v-9.045a6.011,6.011,0,0,1,3.769-5.573,6.013,6.013,0,0,0-2.262-.458h-9.045a6.032,6.032,0,0,0-6.03,6.031v9.045a6.032,6.032,0,0,0,6.03,6.03h9.045a6,6,0,0,0,2.262-.458A6.011,6.011,0,0,1,4183.457,1632.284Z" transform="translate(-4114.615 -1517.949)"/><path class="f" d="M4209.74,1460.764h-13.568a12.1,12.1,0,0,0-12.061,12.06v12.061h13.568v-12.061A12.1,12.1,0,0,1,4209.74,1460.764Z" transform="translate(-4122.807 -1427.839)"/><path class="f" d="M4140.791,1637.86V1586.6a12.057,12.057,0,0,1,12.061-12.06h-13.568a12.057,12.057,0,0,0-12.061,12.06v51.258a12.057,12.057,0,0,0,12.061,12.06h13.568A12.057,12.057,0,0,1,4140.791,1637.86Z" transform="translate(-4090.039 -1493.374)"/><path class="g" d="M4220.579,1648.3H4133.14a16.6,16.6,0,0,1-16.583-16.583v-51.258a16.6,16.6,0,0,1,16.583-16.583h87.439a16.6,16.6,0,0,1,16.583,16.583v51.258A16.6,16.6,0,0,1,4220.579,1648.3Zm-87.439-75.379a7.549,7.549,0,0,0-7.538,7.538v51.258a7.549,7.549,0,0,0,7.538,7.538h87.439a7.549,7.549,0,0,0,7.538-7.538v-51.258a7.549,7.549,0,0,0-7.538-7.538Z" transform="translate(-4083.896 -1487.23)"/><path class="g" d="M4178.82,1636.694h-9.045a10.565,10.565,0,0,1-10.553-10.553V1617.1a10.565,10.565,0,0,1,10.553-10.553h9.045a10.564,10.564,0,0,1,10.553,10.553v9.045A10.565,10.565,0,0,1,4178.82,1636.694Zm-9.045-21.106a1.508,1.508,0,0,0-1.507,1.508v9.045a1.508,1.508,0,0,0,1.507,1.507h9.045a1.508,1.508,0,0,0,1.508-1.507V1617.1a1.508,1.508,0,0,0-1.508-1.508Z" transform="translate(-4108.471 -1511.806)"/><path class="g" d="M4159.222,1698.986h84.424v9.045h-84.424Z" transform="translate(-4108.471 -1565.053)"/><path class="g" d="M4191.222,1506.986h105.531v9.045H4191.222Z" transform="translate(-4126.903 -1454.462)"/><path class="g" d="M4285.729,1532.249l-4.462-7.87a7.322,7.322,0,0,0,3.739-6.441V1466.68a7.548,7.548,0,0,0-7.538-7.538h-87.439a7.548,7.548,0,0,0-7.538,7.538v18.091h-9.046V1466.68a16.6,16.6,0,0,1,16.584-16.583h87.439a16.6,16.6,0,0,1,16.583,16.583v51.258a16.479,16.479,0,0,1-8.322,14.31Z" transform="translate(-4116.663 -1421.694)"/></g></g></svg>