<svg xmlns="http://www.w3.org/2000/svg" width="170.912" height="189.473" viewBox="0 0 170.912 189.473"><defs><style>.a{fill:#efefef;}.b{fill:#a4afc1;}.c{fill:#f3f3f1;}.d{fill:#00aeef;}.e{fill:aqua;}.f{fill:#d5dbe1;}.g{fill:#0072bc;}.h{fill:#fff;}</style></defs><g transform="translate(-4065.569 -728.306)"><g transform="translate(4065.569 728.306)"><path class="a" d="M4203.371,747.8c-37.626,0-63.464-19.49-81.594-19.49s-56.207,10.422-56.207,93.828,51.225,95.645,71.166,95.645C4230.118,917.784,4270.006,747.8,4203.371,747.8Z" transform="translate(-4065.569 -728.306)"/></g><g transform="translate(4203.382 731.929)"><g transform="translate(0)"><path class="b" d="M4425.889,737.778h5.439v10.879h-5.439Z" transform="translate(-4425.889 -737.778)"/></g><g transform="translate(12.239 16.319)"><path class="b" d="M4457.889,780.444h10.878v5.44h-10.878Z" transform="translate(-4457.889 -780.444)"/></g></g><g transform="translate(4089.83 785.874)"><path class="c" d="M4251.391,908.95l-56.137,28.906a11.066,11.066,0,0,1-10.118,0L4129,907.884V895.96a5.436,5.436,0,0,1,2.654-4.673l20.916-12.467h74.343l21.748,12.484a5.43,5.43,0,0,1,2.73,4.716Z" transform="translate(-4129 -878.82)"/></g><g transform="translate(4106.149 761.847)"><path class="d" d="M4260.061,908.474h-88.394V826.879A10.876,10.876,0,0,1,4182.546,816h66.635a10.876,10.876,0,0,1,10.88,10.879Z" transform="translate(-4171.667 -816)"/></g><g transform="translate(4089.83 809.498)"><path class="c" d="M4251.391,940.587v61.141a8.148,8.148,0,0,1-8.159,8.16H4137.159a8.148,8.148,0,0,1-8.159-8.16V940.587l56.137,29.972a11.066,11.066,0,0,0,10.118,0Z" transform="translate(-4129 -940.587)"/></g><g transform="translate(4106.149 761.847)"><path class="e" d="M4183.906,881.618V816h-1.36a10.876,10.876,0,0,0-10.879,10.879v48.206Z" transform="translate(-4171.667 -816)"/></g><g transform="translate(4089.83 790.198)"><path class="f" d="M4145.319,917.041l-4.08-2.176V902.942a5.435,5.435,0,0,1,2.654-4.673l1.426-.849v-7.294l-13.665,8.149a5.436,5.436,0,0,0-2.654,4.673v11.924l16.319,8.714Z" transform="translate(-4129 -890.126)"/></g><g transform="translate(4089.83 814.937)"><path class="f" d="M4141.239,1010.51V961.342L4129,954.809v55.7a8.149,8.149,0,0,0,8.159,8.16H4149.4A8.149,8.149,0,0,1,4141.239,1010.51Z" transform="translate(-4129 -954.809)"/></g><g transform="translate(4102.069 757.767)"><path class="g" d="M4258.913,866.257h-8.159V820.292a6.809,6.809,0,0,0-6.8-6.8h-68a6.809,6.809,0,0,0-6.8,6.8v45.965H4161V820.292a14.971,14.971,0,0,1,14.959-14.959h68a14.971,14.971,0,0,1,14.958,14.959Z" transform="translate(-4161 -805.333)"/></g><g transform="translate(4087.937 806.533)"><path class="g" d="M4187.134,971.082a15.035,15.035,0,0,1-6.93-1.692l-56.153-29.32,3.78-7.234,56.137,29.319a6.89,6.89,0,0,0,6.343-.005l56.126-29.314,3.781,7.234-56.137,29.32A15.09,15.09,0,0,1,4187.134,971.082Z" transform="translate(-4124.051 -932.836)"/></g><g transform="translate(4085.75 786.531)"><path class="g" d="M4236.645,976.887H4130.572a12.258,12.258,0,0,1-12.239-12.239V897.332a12.257,12.257,0,0,1,6.2-10.645l10.825-6.147,4.025,7.1-10.825,6.147a4.092,4.092,0,0,0-2.067,3.546v67.315a4.088,4.088,0,0,0,4.08,4.08h106.073a4.088,4.088,0,0,0,4.08-4.08V897.332a4.078,4.078,0,0,0-2.067-3.546l-10.825-6.147,4.025-7.1,10.824,6.147a12.257,12.257,0,0,1,6.2,10.645v67.315A12.258,12.258,0,0,1,4236.645,976.887Z" transform="translate(-4118.333 -880.54)"/></g><g transform="translate(4126.334 773.937)"><path class="h" d="M4259.069,864a1.875,1.875,0,0,1,0,2.653l-12.584,12.585a1.877,1.877,0,0,1-2.654,0l-5.99-5.991a1.876,1.876,0,0,1,2.653-2.652l4.664,4.664L4256.416,864A1.877,1.877,0,0,1,4259.069,864Zm13.4,7.619a24.011,24.011,0,1,1-24.011-24.011A24,24,0,0,1,4272.466,871.622Zm-3.752,0a20.259,20.259,0,1,0-20.259,20.259A20.248,20.248,0,0,0,4268.714,871.622Z" transform="translate(-4224.444 -847.611)"/></g></g></svg>