<svg xmlns="http://www.w3.org/2000/svg" width="170.912" height="189.473" viewBox="0 0 170.912 189.473"><defs><style>.a{fill:#efefef;}.b{fill:#a4afc1;}.c{fill:#f3f3f1;}.d{fill:#00aeef;}.e{fill:aqua;}.f{fill:#d5dbe1;}.g{fill:#0072bc;}.h{fill:#fff;}</style></defs><g transform="translate(-4848.75 -1383.111)"><g transform="translate(4848.75 1383.111)"><path class="a" d="M4881.86,1402.6c37.626,0,63.464-19.49,81.595-19.49s56.207,10.422,56.207,93.828-51.225,95.645-71.167,95.645c-93.381.005-133.27-169.982-66.635-169.982Z" transform="translate(-4848.75 -1383.111)"/></g><g transform="translate(4982.634 1395.761)"><path class="b" d="M5198.8,1420.031l3.846-3.846,7.691,7.691-3.846,3.846Z" transform="translate(-5198.799 -1416.185)"/><g transform="translate(22.114 22.117)"><path class="b" d="M5256.617,1477.858l3.846-3.846,7.691,7.692-3.846,3.846Z" transform="translate(-5256.617 -1474.012)"/></g><g transform="translate(21.152 0.003)"><path class="b" d="M5254.1,1423.884l7.692-7.692,3.846,3.846-7.692,7.691Z" transform="translate(-5254.102 -1416.192)"/></g></g><g transform="translate(4873.011 1481.927)"><path class="c" d="M4991.055,1676.829h-78.874v-19.038a16.318,16.318,0,0,1,16.318-16.319h46.237a16.318,16.318,0,0,1,16.319,16.319Z" transform="translate(-4912.181 -1641.472)"/></g><g transform="translate(4892.049 1422.091)"><circle class="c" cx="20.399" cy="20.399" r="20.399" transform="translate(0)"/></g><g transform="translate(4892.104 1422.091)"><path class="d" d="M5002.789,1504.338c-9.247,1.414-14.9-8.431-14.9-8.431-9.574,8.921-21.7,8.7-25.784,8.323a20.375,20.375,0,0,1,40.688.109Z" transform="translate(-4962.101 -1485.028)"/></g><g transform="translate(4932.846 1476.487)"><circle class="d" cx="31.278" cy="31.278" r="31.278" transform="translate(0 0)"/></g><g transform="translate(4932.846 1476.487)"><path class="e" d="M5080.864,1658.528a31.279,31.279,0,0,1,25.158-30.669,31.275,31.275,0,1,0-6.12,61.946,31.088,31.088,0,0,0,6.12-.609A31.278,31.278,0,0,1,5080.864,1658.528Z" transform="translate(-5068.625 -1627.25)"/></g><g transform="translate(4873.011 1481.927)"><path class="f" d="M4940.739,1641.472H4928.5a16.318,16.318,0,0,0-16.318,16.319v19.038h12.239v-19.038A16.318,16.318,0,0,1,4940.739,1641.472Z" transform="translate(-4912.181 -1641.472)"/></g><g transform="translate(4892.049 1422.091)"><path class="f" d="M4974.2,1505.426a20.327,20.327,0,0,1,14.279-19.36,20.169,20.169,0,0,0-6.12-1.039,20.4,20.4,0,0,0,0,40.8,20.165,20.165,0,0,0,6.12-1.039A20.327,20.327,0,0,1,4974.2,1505.426Z" transform="translate(-4961.958 -1485.028)"/></g><g transform="translate(4892.104 1422.091)"><path class="e" d="M4988.554,1486.056a20.084,20.084,0,0,0-6.108-1.028,20.35,20.35,0,0,0-20.344,19.2,37.314,37.314,0,0,0,12.408-1.1A20.245,20.245,0,0,1,4988.554,1486.056Z" transform="translate(-4962.101 -1485.028)"/></g><g transform="translate(4891.723 1428.894)"><path class="g" d="M5000.314,1519.543c-6.315,0-10.994-3.775-13.746-6.827-10.265,7.278-21.878,6.892-25.463,6.56l.762-8.121c3.16.3,14.154.653,22.623-7.246a4.082,4.082,0,0,1,6.321.952c.032.054,4.417,7.349,10.754,6.43l1.235,8.061a16.543,16.543,0,0,1-2.486.19Z" transform="translate(-4961.105 -1502.815)"/></g><g transform="translate(4887.969 1418.012)"><path class="g" d="M4975.771,1523.317a24.478,24.478,0,1,1,24.478-24.478A24.508,24.508,0,0,1,4975.771,1523.317Zm0-40.8a16.319,16.319,0,1,0,16.318,16.319A16.339,16.339,0,0,0,4975.771,1482.52Z" transform="translate(-4951.292 -1474.361)"/></g><g transform="translate(4928.766 1472.407)"><path class="g" d="M5093.315,1687.3a35.357,35.357,0,1,1,35.357-35.357A35.4,35.4,0,0,1,5093.315,1687.3Zm0-62.556a27.2,27.2,0,1,0,27.2,27.2A27.229,27.229,0,0,0,5093.315,1624.742Z" transform="translate(-5057.958 -1616.583)"/></g><g transform="translate(4868.931 1477.847)"><path class="g" d="M4950.471,1674.322h-44.877a4.081,4.081,0,0,1-4.08-4.08V1651.2a20.42,20.42,0,0,1,20.4-20.4h34.106v8.16h-34.106a12.251,12.251,0,0,0-12.239,12.239v14.959h40.8Z" transform="translate(-4901.514 -1630.805)"/></g><g transform="translate(4957.938 1491.482)"><g transform="translate(0)"><path class="h" d="M5145.991,1690.879h-5.428v-3.542a11.147,11.147,0,0,1,4.849-8.912,3.62,3.62,0,0,0-2.135-6.542,3.62,3.62,0,0,0-3.619,3.618v2.714h-5.427V1675.5a9.046,9.046,0,1,1,14.39,7.3,5.86,5.86,0,0,0-2.63,4.534Z" transform="translate(-5134.231 -1666.455)"/></g><g transform="translate(6.332 27.138)"><circle class="h" cx="2.714" cy="2.714" r="2.714"/></g></g></g></svg>