<svg xmlns="http://www.w3.org/2000/svg" xmlns:xlink="http://www.w3.org/1999/xlink" width="283" height="283" viewBox="0 0 283 283"><defs><style>.a{fill:#fff;}.b{fill:#efefef;}.c{fill:#00aeef;}.d{fill:aqua;}.e{fill:#a4afc1;}.f{fill:#d5dbe1;}.g{fill:#0072bc;}.h{filter:url(#a);}</style><filter id="a" x="0" y="0" width="283" height="283" filterUnits="userSpaceOnUse"><feOffset dy="8" input="SourceAlpha"/><feGaussianBlur stdDeviation="37.5" result="b"/><feFlood flood-opacity="0.122"/><feComposite operator="in" in2="b"/><feComposite in="SourceGraphic"/></filter></defs><g transform="translate(-1345.5 57.5)"><g class="h" transform="matrix(1, 0, 0, 1, 1345.5, -57.5)"><rect class="a" width="58" height="58" rx="29" transform="translate(112.5 104.5)"/></g><g transform="translate(200.146 -612.449)"><path class="b" d="M1297.584,672.277c14.294,0,5.738,36.464-14.294,36.463-4.278,0-15.266-2.625-15.266-20.517s8.168-20.127,12.057-20.127,9.432,4.181,17.5,4.181Z" transform="translate(0 0)"/><path class="c" d="M1334.553,738.093s-2.031,4.94-10.039,4.861c0,0-1.912-12.55,9.641-13.028,0,0,11.634-.359,10.6,12.869C1344.754,742.794,1338.018,744.069,1334.553,738.093Z" transform="translate(-48.2 -52.865)"/><path class="d" d="M1325.46,744.047s-.352-11.74,5.832-13.047c0,0-7.366.83-6.979,12.867Z" transform="translate(-48.116 -53.785)"/><g transform="translate(1296.355 670.375)"><path class="e" d="M1464.716,685.715l-1.262-1.262.631-.631,1.262,1.262Z" transform="translate(-1463.454 -683.822)"/><path class="e" d="M1489.744,710.739l-1.262-1.262.631-.631,1.262,1.262Z" transform="translate(-1484.854 -705.218)"/><path class="e" d="M1488.021,685.713l-.631-.631,1.262-1.262.631.631Z" transform="translate(-1483.92 -683.82)"/></g><path class="f" d="M1474.306,803.962c0-.149,3.377-2.779,3.377-2.779v-2.57l-1.688-1.076h-1.9Z" transform="translate(-176.199 -110.677)"/><path class="f" d="M1291.556,804.071c0-.149-3.377-2.779-3.377-2.779v-2.57l1.688-1.076h1.9Z" transform="translate(-17.233 -110.77)"/><path class="g" d="M1315.865,720.984l-1.467,1.048h-1.16v-6.559h1.162l1.464,1.027Zm-14.924-18.027a12.364,12.364,0,0,0-12.273,11.582h-.854a13.141,13.141,0,0,1,26.253,0h-.853a12.365,12.365,0,0,0-12.273-11.584Zm-12.294,19.073h-1.16l-1.467-1.048V716.5l1.464-1.027h1.162Zm15.735,4.94a.587.587,0,0,1-.585.559h-1.849a.587.587,0,1,1,0-1.174h1.849a.587.587,0,0,1,.585.559c0,.01,0,.019,0,.028A.268.268,0,0,0,1304.382,726.97Zm-3.441,4.888a9.71,9.71,0,0,1-9.7-9.7v-3.39c.324.03.649.05.974.05a10.588,10.588,0,0,0,8.723-4.624,10.588,10.588,0,0,0,8.726,4.624c.325,0,.65-.021.974-.05v3.39a9.639,9.639,0,0,1-1.017,4.314h-4.379a1.523,1.523,0,0,0-1.447-1.054h-1.849a1.521,1.521,0,1,0,0,3.041h1.849a1.523,1.523,0,0,0,1.447-1.054h3.846a9.7,9.7,0,0,1-8.149,4.451Zm0-26.238a9.71,9.71,0,0,1,9.7,9.7v2.514a9.523,9.523,0,0,1-9.294-4.747.467.467,0,0,0-.808,0,9.523,9.523,0,0,1-9.294,4.747v-2.514a9.71,9.71,0,0,1,9.7-9.7Zm15.659,10.255-1.594-1.118a14.07,14.07,0,0,0-28.13,0l-1.59,1.117a.467.467,0,0,0-.2.382v4.965a.466.466,0,0,0,.2.38l1.784,1.275a.467.467,0,0,0,.271.088h1.776a.467.467,0,0,0,.467-.467v-7.462c0-.007,0-.013,0-.02a11.359,11.359,0,1,1,22.718,0,.187.187,0,0,0,0,.051v7.43a.467.467,0,0,0,.467.467h.421v.538a2.975,2.975,0,0,1-2.521,2.934,10.573,10.573,0,0,0,.9-4.276v-6.841a10.769,10.769,0,0,0-2.905-7.3,10.448,10.448,0,0,0-7.726-3.329,10.632,10.632,0,0,0-10.632,10.632v6.842a10.628,10.628,0,0,0,19.872,5.248h.037a3.912,3.912,0,0,0,3.907-3.907v-.537h.421a.466.466,0,0,0,.271-.087l1.784-1.275a.467.467,0,0,0,.2-.38v-4.966a.467.467,0,0,0-.2-.382Z" transform="translate(-14.589 -28.198)"/></g></g></svg>