<svg xmlns="http://www.w3.org/2000/svg" width="47.5" height="43.362" viewBox="0 0 47.5 43.362"><defs><style>.a{fill:#00669e;}.b{fill:aqua;}.c{fill:#0072bc;}.d{fill:#fff;}</style></defs><g transform="translate(-789.272 -247.885)"><g transform="translate(789.272 248.4)"><path class="a" d="M794.158,287.8c0-9.433-4.886-15.91-4.886-20.456s2.613-14.091,23.523-14.091S836.772,266.1,836.772,271.1C836.774,294.506,794.158,304.506,794.158,287.8Z" transform="translate(-789.272 -253.254)"/></g><g transform="translate(830.467 248.362)"><path class="b" d="M1218.9,254.791l1.928-1.928.964.964-1.928,1.928Z" transform="translate(-1218.896 -252.863)"/></g><g transform="translate(825.169 247.885)"><path class="b" d="M1163.642,248.849l.964-.964,1.928,1.928-.964.964Z" transform="translate(-1163.642 -247.885)"/></g><g transform="translate(830.711 253.433)"><path class="b" d="M1221.445,306.705l.964-.964,1.928,1.928-.964.964Z" transform="translate(-1221.445 -305.741)"/></g><g transform="translate(797.681 259.937)"><path class="c" d="M906.286,373.574a1.364,1.364,0,0,1,1.364,1.364v15H876.967v-15a1.364,1.364,0,0,1,1.364-1.364Z" transform="translate(-876.967 -373.574)"/></g><g transform="translate(797.681 276.301)"><path class="c" d="M876.967,544.24H907.65v3.409a1.364,1.364,0,0,1-1.364,1.364H878.331a1.364,1.364,0,0,1-1.364-1.364Z" transform="translate(-876.967 -544.24)"/></g><g transform="translate(808.59 281.074)"><path class="c" d="M997.563,594.018a8.006,8.006,0,0,0,2.018,4.091h-8.837a7.886,7.886,0,0,0,2.018-4.091Z" transform="translate(-990.744 -594.018)"/></g><g transform="translate(803.135 264.028)"><circle class="c" cx="4.432" cy="4.432" r="4.432" transform="translate(0)"/></g><g transform="translate(797.681 276.301)"><path class="a" d="M880.035,547.649V544.24h-3.068v3.409a1.364,1.364,0,0,0,1.364,1.364H881.4A1.364,1.364,0,0,1,880.035,547.649Z" transform="translate(-876.967 -544.24)"/></g><g transform="translate(808.59 281.074)"><path class="a" d="M992.762,594.018a7.886,7.886,0,0,1-2.018,4.091h3.068a7.886,7.886,0,0,0,2.018-4.091Z" transform="translate(-990.744 -594.018)"/></g><g transform="translate(803.135 264.028)"><path class="a" d="M936.924,420.672a4.421,4.421,0,0,1,2.9-4.143,4.432,4.432,0,1,0,0,8.286A4.421,4.421,0,0,1,936.924,420.672Z" transform="translate(-933.856 -416.24)"/></g><g transform="translate(797.681 259.937)"><path class="a" d="M881.4,373.574h-3.068a1.364,1.364,0,0,0-1.364,1.364v15h3.068v-15A1.364,1.364,0,0,1,881.4,373.574Z" transform="translate(-876.967 -373.574)"/></g><g transform="translate(802.113 263.005)"><path class="d" d="M928.644,416.484a5.455,5.455,0,1,1,5.455-5.455A5.46,5.46,0,0,1,928.644,416.484Zm0-8.864a3.409,3.409,0,1,0,3.409,3.409A3.413,3.413,0,0,0,928.644,407.62Z" transform="translate(-923.189 -405.574)"/></g><g transform="translate(803.809 264.369)"><path class="d" d="M942.328,427.644l-1.447-1.447,2.734-2.734V419.8h2.046v4.091a1.018,1.018,0,0,1-.3.723Z" transform="translate(-940.881 -419.796)"/></g><g transform="translate(815.75 264.369)"><path class="d" d="M1065.411,419.8h8.182v2.046h-8.182Z" transform="translate(-1065.411 -419.796)"/></g><g transform="translate(815.75 270.505)"><path class="d" d="M1065.411,483.8h8.182v2.046h-8.182Z" transform="translate(-1065.411 -483.796)"/></g><g transform="translate(796.658 258.914)"><path class="d" d="M896.642,386.09H868.686A2.389,2.389,0,0,1,866.3,383.7v-18.41a2.389,2.389,0,0,1,2.387-2.386h27.956a2.389,2.389,0,0,1,2.386,2.386V383.7A2.389,2.389,0,0,1,896.642,386.09Zm-27.956-21.137a.341.341,0,0,0-.341.341V383.7a.341.341,0,0,0,.341.341h27.956a.341.341,0,0,0,.341-.341v-18.41a.341.341,0,0,0-.341-.341Z" transform="translate(-866.3 -362.907)"/></g><g transform="translate(791.203 284.142)"><path class="d" d="M809.411,626.018h43.638v2.046H809.411Z" transform="translate(-809.411 -626.018)"/></g><g transform="translate(797.681 275.278)"><path class="d" d="M876.967,533.574H907.65v2.046H876.967Z" transform="translate(-876.967 -533.574)"/></g><g transform="translate(807.567 280.931)"><path class="d" d="M989.964,597.782H981.1a1.022,1.022,0,0,1-.723-1.746,6.941,6.941,0,0,0,1.728-3.5l2.028.266a9.173,9.173,0,0,1-1.015,2.935h4.8a9.382,9.382,0,0,1-1.017-2.928l2.025-.284a7.092,7.092,0,0,0,1.615,3.393,1.023,1.023,0,0,1-.581,1.864Z" transform="translate(-980.077 -592.525)"/></g></g></svg>